# xmcd
#
# Track frame offsets:
#	150
#	28295
#	45782
#	64232
#	78575
#	95317
#	116105
#	131575
#	147365
#	170502
#	188027
#	202462
#	231502
#	252775
#	271022
#	289290
#	303862
#
# Disc length: 4328
#
# Revision: 2
# Processed by: cddbd v1.5.1PL0 Copyright (c) Steve Scherf et al.
# Submitted via: EasyCDDAExtractor 6.0.0.1
# Normalized: r1:DSETVAR1
#
DISCID=fc10e611
DTITLE=Various Artist - Golden Old Hits
DYEAR=1995
DGENRE=Disco
TTITLE0=Savage - Don't Cry Tonight
TTITLE1=F.R.David - Take Me Back
TTITLE2=Fancy - Bolero
TTITLE3=Savage - Don't Leave Me
TTITLE4=F.R.David - Girl
TTITLE5=Fancy - Lady Of Ice
TTITLE6=Savage - Strange Love
TTITLE7=F.R.David - Words
TTITLE8=Fancy - Colder Than Ice
TTITLE9=Savage - Only You
TTITLE10=F.R.David - Pick Up The Phone
TTITLE11=Fancy - Bodyguard
TTITLE12=Savage - Radio
TTITLE13=F.R.David - Sing In My Life
TTITLE14=Fancy - Flames Of Love
TTITLE15=F.R.David - This Time I Have To Win
TTITLE16=Savage - Goodbye
EXTD=
EXTT0=
EXTT1=
EXTT2=
EXTT3=
EXTT4=
EXTT5=
EXTT6=
EXTT7=
EXTT8=
EXTT9=
EXTT10=
EXTT11=
EXTT12=
EXTT13=
EXTT14=
EXTT15=
EXTT16=
PLAYORDER=
